<?xml version="1.0" encoding="iso-8859-1"?>
<!-- Generator: Adobe Illustrator 19.0.0, SVG Export Plug-In . SVG Version: 6.00 Build 0)  -->
<svg xmlns="http://www.w3.org/2000/svg" xmlns:xlink="http://www.w3.org/1999/xlink" version="1.1" id="Layer_1" x="0px" y="0px" viewBox="0 0 502 502" style="enable-background:new 0 0 502 502;" xml:space="preserve" width="512px" height="512px">
<g>
	<g>
		<g>
			<path d="M167.313,136.528c2.563,0,5.128-0.98,7.081-2.939c3.899-3.911,3.891-10.242-0.021-14.142L57.505,2.919     C53.594-0.98,47.263-0.971,43.363,2.94c-3.9,3.911-3.891,10.242,0.021,14.142l116.868,116.527     C162.204,135.555,164.758,136.528,167.313,136.528z" fill="#245877"/>
			<path d="M408.127,38.947L307.611,139.461v-7.637c0-5.522-4.478-10-10-10h-93.223c-5.522,0-10,4.478-10,10v55.086     c0,3.097,1.435,6.02,3.886,7.913l6.516,5.035c-27.464,8.611-52.233,24.844-71.207,46.974     C109.606,274.799,96.4,310.515,96.4,347.401C96.4,432.647,165.754,502,251,502s154.6-69.354,154.6-154.6     c0-36.886-13.205-72.602-37.184-100.567c-18.974-22.13-43.742-38.364-71.207-46.974l6.516-5.035     c2.451-1.894,3.886-4.816,3.886-7.913v-19.164L422.27,53.089c3.905-3.905,3.905-10.237,0-14.143     C418.365,35.044,412.035,35.042,408.127,38.947z M214.389,141.824h73.223V182l-19.159,14.804     c-0.002,0.001-0.004,0.003-0.006,0.004L251,210.29l-17.446-13.481c-0.002-0.001-0.004-0.003-0.006-0.004L214.389,182V141.824z      M385.6,347.401c0,74.219-60.381,134.6-134.6,134.6s-134.6-60.381-134.6-134.6c0-64.821,45.346-119.685,108.437-132.052     l20.049,15.492c3.602,2.783,8.627,2.783,12.229,0l20.049-15.492C340.253,227.716,385.6,282.58,385.6,347.401z" fill="#245877"/>
			<path d="M458.635,2.937c-3.9-3.91-10.232-3.916-14.143-0.016l-9.556,9.534c-3.909,3.901-3.916,10.232-0.016,14.143     c1.953,1.958,4.516,2.937,7.079,2.937c2.556,0,5.111-0.974,7.063-2.921l9.556-9.534C462.528,13.178,462.535,6.847,458.635,2.937z     " fill="#245877"/>
			<path d="M195.64,420.094c-22.737-17.414-35.778-43.805-35.778-72.405c0-5.522-4.478-10-10-10c-5.522,0-10,4.478-10,10     c0,34.876,15.898,67.054,43.618,88.284c1.813,1.389,3.951,2.062,6.073,2.062c3.005,0,5.978-1.351,7.946-3.921     C200.857,429.729,200.024,423.452,195.64,420.094z" fill="#245877"/>
			<path d="M153.451,319.064c1.229,0.497,2.498,0.732,3.747,0.732c3.954,0,7.699-2.362,9.273-6.253     c3.972-9.818,9.592-18.812,16.704-26.728c3.691-4.108,3.354-10.431-0.755-14.122c-4.109-3.691-10.431-3.353-14.122,0.755     c-8.67,9.65-15.522,20.616-20.368,32.595C145.86,311.163,148.332,316.992,153.451,319.064z" fill="#245877"/>
			<path d="M263.945,291.022c-3.737-1.549-8.039-0.692-10.898,2.167l-37.721,37.719c-3.905,3.905-3.905,10.237,0,14.143     c3.906,3.904,10.236,3.905,14.143,0l20.649-20.649v78.614c0,5.522,4.478,10,10,10c5.522,0,10-4.478,10-10V300.26     C270.118,296.215,267.681,292.569,263.945,291.022z" fill="#245877"/>
		</g>
	</g>
</g>
<g>
</g>
<g>
</g>
<g>
</g>
<g>
</g>
<g>
</g>
<g>
</g>
<g>
</g>
<g>
</g>
<g>
</g>
<g>
</g>
<g>
</g>
<g>
</g>
<g>
</g>
<g>
</g>
<g>
</g>
</svg>
