<?xml version="1.0" encoding="iso-8859-1"?>
<!-- Generator: Adobe Illustrator 19.0.0, SVG Export Plug-In . SVG Version: 6.00 Build 0)  -->
<svg xmlns="http://www.w3.org/2000/svg" xmlns:xlink="http://www.w3.org/1999/xlink" version="1.1" id="Layer_1" x="0px" y="0px" viewBox="0 0 295.238 295.238" style="enable-background:new 0 0 295.238 295.238;" xml:space="preserve" width="512px" height="512px">
<g>
	<g>
		<g>
			<path d="M280.952,266.667h-66.667v-6.1c37.838-6.776,66.667-39.857,66.667-79.614v-42.857h-85.714v-19.048h9.524     c7.876,0,14.286-6.41,14.286-14.286v-5.243c5.838-1.19,10.848-4.571,14.286-9.19v0.148h19.048c7.876,0,14.286-6.41,14.286-14.286     V42.857c0-7.876-6.41-14.286-14.286-14.286h-20.067C223.624,11.638,206.019,0,185.714,0H38.095C17.09,0,0,17.09,0,38.095v36.971     c0,8.371,4.667,15.91,12.176,19.676c4.238,2.129,6.871,6.4,6.871,11.143v119.557c0,16.1-6.267,31.238-17.652,42.619L0,269.457     v25.781h280.952c7.876,0,14.286-6.41,14.286-14.286C295.238,273.076,288.829,266.667,280.952,266.667z M252.381,38.094     L252.381,38.094c2.624,0.001,4.762,2.139,4.762,4.763V76.19c0,2.624-2.138,4.762-4.762,4.762h-14.767     c0.314-1.538,0.481-3.133,0.481-4.762V52.38c0-4.957-0.738-9.738-2.029-14.286H252.381z M271.429,147.619v9.524H123.81v9.524     h147.619v14.286c0,39.386-32.043,71.429-71.429,71.429h-28.571c-39.386,0-71.429-32.043-71.429-71.429v-14.286h14.286v-9.524H100     v-9.524H271.429z M204.762,261.905v4.762h-38.095v-4.762h4.762H200H204.762z M161.905,119.048h9.524v19.048H90.476v42.857     c0,39.757,28.829,72.838,66.667,79.614v5.538c-42.795-4.757-76.19-41.114-76.19-85.152v-66.667     c0-7.876,6.41-14.286,14.286-14.286h52.381v4.762C147.619,112.638,154.029,119.048,161.905,119.048z M180.952,138.095v-19.048     h4.762v19.048H180.952z M209.524,104.762L209.524,104.762c0,2.624-2.138,4.762-4.762,4.762h-42.857     c-2.624,0-4.762-2.138-4.762-4.762V100h52.381V104.762z M16.448,86.233c-4.271-2.143-6.924-6.424-6.924-11.167v-3.638h9.524     v-9.524H9.524v-23.81c0-15.757,12.814-28.571,28.571-28.571h147.619c23.629,0,42.857,19.229,42.857,42.857v9.524h-200v9.524h200     v4.762c0,7.876-6.41,14.286-14.286,14.286h-66.667h-52.38c-11.495,0-21.114,8.195-23.329,19.048h-6.852     C62.348,103.833,56.524,100,50,100s-12.348,3.833-15.057,9.524h-6.371v-3.638C28.571,97.519,23.924,89.986,16.448,86.233z      M280.952,285.714H9.524v-12.352c12.3-13.01,19.048-29.948,19.048-47.919V119.048h13.657l0.776-3.814     c0.667-3.31,3.614-5.71,6.995-5.71s6.329,2.4,7,5.71l0.771,3.814h13.657v61.905c0,52.514,42.724,95.238,95.238,95.238h114.286     c2.624,0,4.762,2.133,4.762,4.762C285.714,283.581,283.576,285.714,280.952,285.714z" fill="#245877"/>
			<path d="M180.952,52.381h9.524c7.876,0,14.286-6.41,14.286-14.286c0-7.876-6.41-14.286-14.286-14.286h-9.524     c-7.876,0-14.286,6.41-14.286,14.286C166.666,45.971,173.076,52.381,180.952,52.381z M180.952,33.333h9.524     c2.624,0,4.762,2.138,4.762,4.762c0,2.624-2.138,4.762-4.762,4.762h-9.524c-2.624,0-4.762-2.138-4.762-4.762     C176.19,35.471,178.329,33.333,180.952,33.333z" fill="#245877"/>
		</g>
	</g>
</g>
<g>
</g>
<g>
</g>
<g>
</g>
<g>
</g>
<g>
</g>
<g>
</g>
<g>
</g>
<g>
</g>
<g>
</g>
<g>
</g>
<g>
</g>
<g>
</g>
<g>
</g>
<g>
</g>
<g>
</g>
</svg>
